<svg width="289" height="315" viewBox="0 0 289 315" fill="none" xmlns="http://www.w3.org/2000/svg">
<g filter="url(#filter0_d_58_184)">
<path d="M124.65 19.5125L25.4001 93.95C17.1293 100.236 12.1667 109.995 12.1667 120.417V269.292C12.1667 287.487 27.0542 302.375 45.2501 302.375H243.75C261.946 302.375 276.833 287.487 276.833 269.292V120.417C276.833 109.995 271.871 100.236 263.6 93.95L164.35 19.5125C158.613 15.2428 151.652 12.9369 144.5 12.9369C137.348 12.9369 130.387 15.2428 124.65 19.5125V19.5125ZM152.771 161.771C152.771 175.5 141.688 186.583 127.958 186.583V244.479C127.958 249.111 124.319 252.75 119.688 252.75C115.056 252.75 111.417 249.111 111.417 244.479V186.583C97.6872 186.583 86.6042 175.5 86.6042 161.771V120.417C86.6042 115.785 90.2434 112.146 94.8751 112.146C99.5067 112.146 103.146 115.785 103.146 120.417V161.771H111.417V120.417C111.417 115.785 115.056 112.146 119.688 112.146C124.319 112.146 127.958 115.785 127.958 120.417V161.771H136.229V120.417C136.229 115.785 139.868 112.146 144.5 112.146C149.132 112.146 152.771 115.785 152.771 120.417V161.771ZM185.854 252.75C181.223 252.75 177.583 249.111 177.583 244.479V194.854H169.313C164.681 194.854 161.042 191.215 161.042 186.583V145.229C161.042 130.672 170.47 118.266 183.538 113.965C188.666 112.146 194.125 116.281 194.125 121.905V244.479C194.125 249.111 190.486 252.75 185.854 252.75Z" fill="#303030"/>
</g>
<defs>
<filter id="filter0_d_58_184" x="0.166748" y="0.93689" width="288.667" height="313.438" filterUnits="userSpaceOnUse" color-interpolation-filters="sRGB">
<feFlood flood-opacity="0" result="BackgroundImageFix"/>
<feColorMatrix in="SourceAlpha" type="matrix" values="0 0 0 0 0 0 0 0 0 0 0 0 0 0 0 0 0 0 127 0" result="hardAlpha"/>
<feOffset/>
<feGaussianBlur stdDeviation="6"/>
<feComposite in2="hardAlpha" operator="out"/>
<feColorMatrix type="matrix" values="0 0 0 0 0 0 0 0 0 0 0 0 0 0 0 0 0 0 0.25 0"/>
<feBlend mode="normal" in2="BackgroundImageFix" result="effect1_dropShadow_58_184"/>
<feBlend mode="normal" in="SourceGraphic" in2="effect1_dropShadow_58_184" result="shape"/>
</filter>
</defs>
</svg>
